<?xml version="1.0" encoding="UTF-8" standalone="no"?>
<svg
   xmlns:dc="http://purl.org/dc/elements/1.1/"
   xmlns:cc="http://creativecommons.org/ns#"
   xmlns:rdf="http://www.w3.org/1999/02/22-rdf-syntax-ns#"
   xmlns:svg="http://www.w3.org/2000/svg"
   xmlns="http://www.w3.org/2000/svg"
   xmlns:xlink="http://www.w3.org/1999/xlink"
   xmlns:sodipodi="http://sodipodi.sourceforge.net/DTD/sodipodi-0.dtd"
   xmlns:inkscape="http://www.inkscape.org/namespaces/inkscape"
   width="50mm"
   height="50mm"
   viewBox="0 0 49.999999 49.999999"
   version="1.1"
   id="svg38"
   inkscape:version="1.0.2 (e86c870879, 2021-01-15)"
   sodipodi:docname="cchess-lib.svg">
  <defs
     id="defs32">
    <linearGradient
       inkscape:collect="always"
       id="linearGradient881">
      <stop
         style="stop-color:#000000;stop-opacity:1;"
         offset="0"
         id="stop877" />
      <stop
         style="stop-color:#000000;stop-opacity:0;"
         offset="1"
         id="stop879" />
    </linearGradient>
    <rect
       x="124.01306"
       y="90.871635"
       width="26.192413"
       height="29.399649"
       id="rect50" />
    <linearGradient
       inkscape:collect="always"
       xlink:href="#linearGradient881"
       id="linearGradient883"
       x1="100.96258"
       y1="95.445557"
       x2="113.644"
       y2="95.445557"
       gradientUnits="userSpaceOnUse" />
  </defs>
  <sodipodi:namedview
     id="base"
     pagecolor="#ffffff"
     bordercolor="#666666"
     borderopacity="1.0"
     inkscape:pageopacity="0.0"
     inkscape:pageshadow="2"
     inkscape:zoom="1.979899"
     inkscape:cx="65.260166"
     inkscape:cy="58.041301"
     inkscape:document-units="mm"
     inkscape:current-layer="layer1"
     inkscape:document-rotation="0"
     showgrid="false"
     inkscape:window-width="1366"
     inkscape:window-height="704"
     inkscape:window-x="0"
     inkscape:window-y="0"
     inkscape:window-maximized="1"
     units="mm"
     fit-margin-top="0"
     fit-margin-left="0"
     fit-margin-right="0"
     fit-margin-bottom="0"
     lock-margins="false" />
  <metadata
     id="metadata35">
    <rdf:RDF>
      <cc:Work
         rdf:about="">
        <dc:format>image/svg+xml</dc:format>
        <dc:type
           rdf:resource="http://purl.org/dc/dcmitype/StillImage" />
        <dc:title></dc:title>
      </cc:Work>
    </rdf:RDF>
  </metadata>
  <g
     inkscape:label="Layer 1"
     inkscape:groupmode="layer"
     id="layer1"
     transform="translate(-90.467712,-80.458752)">
    <g
       id="g102"
       transform="matrix(2.0751744,0,0,2.3473955,-97.268568,-108.40976)">
      <path
         id="text42"
         style="font-size:26.4583px;line-height:1.25;font-family:sans-serif;stroke-width:0.999999"
         d="m 25.537109,0 c -2.766923,1.4322898 -3.499347,3.4505241 -2.197265,6.0546875 1.334633,2.5716113 1.009112,4.4921895 -0.976563,5.7617185 H 18.115234 C 16.29232,7.8450571 13.688147,5.4199208 10.302734,4.5410156 9.0657568,8.6751249 9.0169285,11.083985 10.15625,11.767578 c 1.171874,0.683593 1.578776,1.708986 1.220703,3.076172 C 8.154301,18.229162 5.7617168,21.695968 4.1992188,25.244141 4.6549473,32.112621 3.2552042,39.794933 0,48.291016 c 0.87890513,2.701819 3.1738329,4.508464 6.8847656,5.419922 l 5.2246094,-3.90625 -2.34375,5.078124 c 3.483068,0.162761 6.738285,-2.213547 9.765625,-7.128906 4.036453,0.227865 7.177737,-2.490241 9.423828,-8.154297 0.455729,3.873693 -2.718107,8.186855 -9.521484,12.939453 -6.803377,4.752599 -10.2050784,9.73308 -10.2050784,14.941407 0,1.888018 0.2115891,3.743492 0.6347656,5.566406 H 45.988281 a 21.592011,22.475894 0 0 1 3.777344,-8.494141 C 48.679345,42.946103 42.550237,28.104344 31.347656,20.068359 L 28.808594,15.722656 C 42.147535,23.52522 50.170785,38.64286 52.892578,61.056641 A 21.592011,22.475894 0 0 1 55.802734,58.84375 C 52.347601,36.734608 43.369609,21.070726 28.857422,11.865234 c 0.0651,0 0.09766,-0.01628 0.09766,-0.04883 H 28.759766 C 30.159503,11.328126 30.664062,9.8958303 30.273438,7.5195312 29.882813,5.1432322 28.304033,2.6367154 25.537109,0 Z m -8.935547,20.117188 h 0.292969 c -1.399738,1.562498 -2.099609,2.897136 -2.099609,4.003906 0,1.59505 -1.12305,2.392578 -3.369141,2.392578 h -1.02539 c -0.260417,0 -0.4557297,-0.488283 -0.5859379,-1.464844 v -0.78125 l 0.2929689,-1.02539 c 1.204425,-2.083331 3.369144,-3.125 6.49414,-3.125 z m -7.0800776,23.730468 0.3417968,1.660156 c 0,1.725259 -1.1718779,2.832032 -3.515625,3.320313 H 5.859375 c -0.9114572,0 -1.3671875,-0.472006 -1.3671875,-1.416016 v -1.171875 c 1.3346337,-1.59505 3.0110703,-2.392578 5.0292969,-2.392578 z"
         transform="matrix(0.26458333,0,0,0.26458333,90.467712,80.458752)" />
      <text
         xml:space="preserve"
         style="font-size:21.1667px;line-height:1.25;font-family:sans-serif;fill:#000000;fill-opacity:1;stroke:none;stroke-width:0.265;stroke-miterlimit:4;stroke-dasharray:none;stroke-opacity:1"
         x="98.738724"
         y="101.74862"
         id="text46"><tspan
           id="tspan44"
           x="98.738724"
           y="101.74862"
           style="font-style:normal;font-variant:normal;font-weight:bold;font-stretch:normal;font-family:'Fira Code';-inkscape-font-specification:'Fira Code Bold';fill:#000000;fill-opacity:1;stroke:none;stroke-width:0.265;stroke-miterlimit:4;stroke-dasharray:none;stroke-opacity:1"
           sodipodi:role="line">♙</tspan></text>
    </g>
    <text
       xml:space="preserve"
       id="text48"
       style="font-size:21.1667px;line-height:1.25;font-family:sans-serif;white-space:pre;shape-inside:url(#rect50);" />
  </g>
</svg>
